<svg xmlns="http://www.w3.org/2000/svg" viewBox="0 0 710.66 184.52"><defs><style>.cls-1{fill:#171d6d;}.cls-2{fill:#ff484d;}</style></defs><g id="Layer_2" data-name="Layer 2"><g id="Layer_1-2" data-name="Layer 1"><path class="cls-1" d="M37.77,28H78.11q15.35.15,23.06,8T109,56.85a25.29,25.29,0,0,1-3.07,12.67A20.32,20.32,0,0,1,101.17,75a34.08,34.08,0,0,1-7.56,4.93v.3a21,21,0,0,1,12.88,9.21A30.85,30.85,0,0,1,110.57,105q-.13,13.94-8.43,22a27.38,27.38,0,0,1-20.5,8.47H37.77ZM53.53,42.47V73.36H76.32Q85,73.36,89,68.69a15,15,0,0,0,4.14-10.81,15.74,15.74,0,0,0-4.14-11Q85,42.61,76.32,42.47Zm0,45.32v32.37H77.86q8.79-.15,12.88-5A16.67,16.67,0,0,0,94.81,104,16.86,16.86,0,0,0,90.74,92.6q-4.08-4.66-12.88-4.81Z"/><path class="cls-1" d="M81.64,138.31H37.77a2.83,2.83,0,0,1-2.83-2.83V28a2.83,2.83,0,0,1,2.83-2.83H78.11c11,.11,19.41,3.07,25.07,8.8s8.6,13.47,8.6,22.85a28.12,28.12,0,0,1-3.4,14A23.3,23.3,0,0,1,103,77.14a29.07,29.07,0,0,1-3.15,2.44,23.17,23.17,0,0,1,9,8.33L109,88a33.69,33.69,0,0,1,4.45,17c-.1,10-3.22,18.14-9.28,24.06A30.18,30.18,0,0,1,81.64,138.31Zm-41-5.66h41A24.47,24.47,0,0,0,100.11,125c5.06-5,7.54-11.51,7.63-20.1a28.17,28.17,0,0,0-3.68-14.06A18.1,18.1,0,0,0,92.87,83a2.86,2.86,0,0,1-2.1-2.74v-.3a2.84,2.84,0,0,1,1.59-2.54,30.87,30.87,0,0,0,6.93-4.51,18,18,0,0,0,4.13-4.74,22.73,22.73,0,0,0,2.7-11.21c0-8-2.28-14.18-7-18.93s-11.66-7-21.07-7.12H40.6ZM53.53,123a2.83,2.83,0,0,1-2.83-2.83V87.79A2.83,2.83,0,0,1,53.53,85H77.86c6.72.11,11.75,2.05,15,5.77a20.52,20.52,0,0,1,0,26.33c-3.24,3.82-8.29,5.82-15,5.93Zm2.83-5.66h21.5c4.94-.08,8.56-1.41,10.72-4A13.8,13.8,0,0,0,92,104a14,14,0,0,0-3.39-9.53c-2.14-2.45-5.78-3.74-10.78-3.82H56.36Zm20-41.14H53.53a2.82,2.82,0,0,1-2.83-2.83V42.47a2.82,2.82,0,0,1,2.83-2.83H76.32c6.56.11,11.51,1.87,14.75,5.23a18.57,18.57,0,0,1,4.94,13,17.74,17.74,0,0,1-4.89,12.73C87.86,74.32,82.88,76.19,76.32,76.19Zm-20-5.66h20c4.88,0,8.44-1.24,10.58-3.7a.94.94,0,0,1,.1-.1,12.16,12.16,0,0,0,3.35-8.85A12.94,12.94,0,0,0,87,48.75c-2.12-2.18-5.72-3.36-10.68-3.45H56.36Z"/><path class="cls-1" d="M183.16,111.45H143.68l-8,24H119L156.82,28H170l37.83,107.45H191.22ZM178.66,97,163.6,50h-.29L148.25,97Z"/><path class="cls-1" d="M207.85,138.31H191.22a2.81,2.81,0,0,1-2.68-1.93l-7.42-22.1H145.73l-7.35,22.1a2.84,2.84,0,0,1-2.69,1.93H119a2.84,2.84,0,0,1-2.68-3.77L154.15,27.09a2.84,2.84,0,0,1,2.67-1.89H170a2.84,2.84,0,0,1,2.68,1.89l37.82,107.45a2.83,2.83,0,0,1-2.67,3.77Zm-14.59-5.66h10.59L168,30.86h-9.2L123,132.65h10.66L141,110.56a2.82,2.82,0,0,1,2.68-1.94h39.48a2.84,2.84,0,0,1,2.68,1.93Zm-14.6-32.8H148.25A2.85,2.85,0,0,1,146,98.69a2.82,2.82,0,0,1-.4-2.53l15.06-47a2.81,2.81,0,0,1,2.69-2h.29a2.83,2.83,0,0,1,2.7,2l15.06,47a2.83,2.83,0,0,1-2.7,3.69Zm-26.53-5.66h22.65L163.46,58.85Z"/><path class="cls-1" d="M221.87,28h40.67q13,0,21.22,7.08,9.9,8,10.32,22.92Q293.79,79.92,274,87.8l24.09,47.68H279.35L257.81,89.56H237.63v45.92H221.87Zm15.76,47.1h23.9q8.88-.15,13.31-5.32A16.93,16.93,0,0,0,279.21,58q-.15-8.43-5.23-12.2-4-3.32-11.59-3.32H237.63Z"/><path class="cls-1" d="M298.07,138.31H279.35a2.82,2.82,0,0,1-2.56-1.62L256,92.39H240.46v43.09a2.83,2.83,0,0,1-2.83,2.83H221.87a2.83,2.83,0,0,1-2.83-2.83V28a2.83,2.83,0,0,1,2.83-2.83h40.67c9.32,0,17.09,2.61,23.07,7.76,7.17,5.82,11,14.24,11.3,25v.12c-.19,14.71-6.6,25.17-19.05,31.13l22.74,45a2.83,2.83,0,0,1-2.53,4.1Zm-16.92-5.66h12.32l-22-43.57a2.82,2.82,0,0,1,1.48-3.91c12.12-4.83,18.11-13.7,18.31-27.12-.28-9.12-3.31-15.9-9.27-20.75-5-4.29-11.51-6.44-19.44-6.44H224.7V132.65h10.1V89.56a2.83,2.83,0,0,1,2.83-2.83h20.18a2.81,2.81,0,0,1,2.56,1.63ZM237.63,78a2.82,2.82,0,0,1-2.83-2.83V42.47a2.82,2.82,0,0,1,2.83-2.83h24.76c5.68,0,10.16,1.32,13.34,3.92,4.08,3.06,6.2,7.89,6.31,14.38a19.84,19.84,0,0,1-5.1,13.78c-3.44,4-8.63,6.13-15.36,6.24Zm2.83-5.66h21.07c5.07-.09,8.73-1.5,11.16-4.33a14.13,14.13,0,0,0,3.69-10c-.09-4.68-1.42-8-4.08-9.92l-.13-.1c-2.13-1.77-5.42-2.67-9.78-2.67H240.46Z"/><path class="cls-1" d="M313.92,28h40.66q13,0,21.23,7.08,9.88,8,10.32,22.92Q385.85,79.92,366,87.8l24.09,47.68H371.4L349.86,89.56H329.68v45.92H313.92Zm15.76,47.1h23.9q8.88-.15,13.31-5.32A16.93,16.93,0,0,0,371.26,58q-.15-8.43-5.23-12.2-4-3.32-11.59-3.32H329.68Z"/><path class="cls-1" d="M390.12,138.31H371.4a2.84,2.84,0,0,1-2.57-1.62l-20.77-44.3H332.51v43.09a2.83,2.83,0,0,1-2.83,2.83H313.92a2.82,2.82,0,0,1-2.83-2.83V28a2.83,2.83,0,0,1,2.83-2.83h40.66c9.33,0,17.1,2.61,23.08,7.76,7.17,5.82,11,14.24,11.3,25v.12c-.19,14.71-6.6,25.17-19,31.13l22.74,45a2.83,2.83,0,0,1-2.53,4.1Zm-16.92-5.66h12.32l-22-43.57A2.84,2.84,0,0,1,365,85.17c12.13-4.83,18.12-13.7,18.32-27.12C383,48.93,380,42.15,374,37.3c-5-4.29-11.5-6.44-19.44-6.44H316.75V132.65h10.09V89.56a2.84,2.84,0,0,1,2.84-2.83h20.18a2.81,2.81,0,0,1,2.56,1.63ZM329.68,78a2.83,2.83,0,0,1-2.84-2.83V42.47a2.83,2.83,0,0,1,2.84-2.83h24.76c5.67,0,10.16,1.32,13.34,3.92,4.07,3.06,6.2,7.89,6.31,14.38A19.84,19.84,0,0,1,369,71.72c-3.45,4-8.63,6.13-15.36,6.24Zm2.83-5.66h21.07c5.07-.09,8.73-1.5,11.16-4.33a14.12,14.12,0,0,0,3.68-10c-.08-4.68-1.41-8-4.08-9.92l-.12-.1c-2.13-1.77-5.43-2.67-9.78-2.67H332.51Z"/><path class="cls-1" d="M459.3,111.45H419.83l-8,24H395.13L433,28h13.2L484,135.48H467.37ZM415,21.24A24.19,24.19,0,0,1,420.6,8.43a14.16,14.16,0,0,1,11-4.64,19.36,19.36,0,0,1,5.35.74,33.11,33.11,0,0,1,5.14,1.91,37.75,37.75,0,0,0,5,2,9.91,9.91,0,0,0,4.35,1,6.47,6.47,0,0,0,4.28-1.32c1.24-.89,2.1-2.65,2.57-5.31h8.78a25.23,25.23,0,0,1-4.78,12.08q-3.86,5.3-11.27,5.45a15.51,15.51,0,0,1-5.43-1A56.59,56.59,0,0,1,440,17.49,26,26,0,0,0,430,14.76a8.51,8.51,0,0,0-3.79,1.18q-2.36,1.55-2.35,5.3ZM454.81,97,439.75,50h-.29L424.4,97Z"/><path class="cls-1" d="M484,138.31H467.37a2.83,2.83,0,0,1-2.69-1.93l-7.41-22.1h-35.4l-7.34,22.1a2.84,2.84,0,0,1-2.69,1.93H395.13a2.83,2.83,0,0,1-2.67-3.77L430.29,27.09A2.84,2.84,0,0,1,433,25.2h13.2a2.84,2.84,0,0,1,2.67,1.89l37.83,107.45a2.83,2.83,0,0,1-2.67,3.77Zm-14.59-5.66H480L444.17,30.86H435L399.13,132.65H409.8l7.34-22.09a2.84,2.84,0,0,1,2.69-1.94H459.3a2.84,2.84,0,0,1,2.69,1.93Zm-14.6-32.8H424.4a2.82,2.82,0,0,1-2.29-1.16,2.85,2.85,0,0,1-.41-2.53l15.06-47a2.83,2.83,0,0,1,2.7-2h.29a2.81,2.81,0,0,1,2.69,2l15.06,47a2.82,2.82,0,0,1-.4,2.53A2.85,2.85,0,0,1,454.81,99.85Zm-26.53-5.66h22.65L439.6,58.85Zm-4.47-70.11H415a2.84,2.84,0,0,1-2.15-1,2.88,2.88,0,0,1-.65-2.27,27.08,27.08,0,0,1,6.26-14.28A16.93,16.93,0,0,1,431.59,1a22.34,22.34,0,0,1,6.13.84,35.52,35.52,0,0,1,5.56,2.08,35.75,35.75,0,0,0,4.64,1.85,2.5,2.5,0,0,1,.38.15,7,7,0,0,0,3.12.75h.19a3.75,3.75,0,0,0,2.45-.81c.21-.15.95-.86,1.43-3.5A2.82,2.82,0,0,1,458.27,0h8.78a2.87,2.87,0,0,1,2.14,1,2.85,2.85,0,0,1,.67,2.26,28.13,28.13,0,0,1-5.34,13.4c-3.07,4.22-7.61,6.45-13.47,6.56h0A18.52,18.52,0,0,1,444.7,22c-2-.56-3.91-1.2-5.72-1.9l-.18-.08a23.46,23.46,0,0,0-8.95-2.46,5.77,5.77,0,0,0-2.23.78c-.32.24-1,.87-1,2.87A2.84,2.84,0,0,1,423.81,24.08Zm-5.3-5.67h2.79a7.83,7.83,0,0,1,3.31-4.84l.22-.13A11,11,0,0,1,430,11.93a28.72,28.72,0,0,1,11.17,3,53,53,0,0,0,5.21,1.72l.23.07a12.74,12.74,0,0,0,4.44.86c4-.08,6.94-1.48,9-4.29a21.07,21.07,0,0,0,3.62-7.58h-3.1a8.83,8.83,0,0,1-3.15,4.78,9.33,9.33,0,0,1-6,1.86,13,13,0,0,1-5.3-1.22A44.33,44.33,0,0,1,440.86,9a30.42,30.42,0,0,0-4.69-1.75,16.61,16.61,0,0,0-4.58-.63,11.34,11.34,0,0,0-8.89,3.71A19.6,19.6,0,0,0,418.51,18.41Z"/><path class="cls-1" d="M494.48,81.76q0-18.77,1.07-25.11a30.37,30.37,0,0,1,3.5-10.27,36.47,36.47,0,0,1,12.13-13.21q8.2-5.88,20.47-6,12.42.13,20.7,6a35.74,35.74,0,0,1,11.84,13.26,25.27,25.27,0,0,1,3.64,10.25q.92,6.33.92,25.06,0,18.42-.92,24.91a25.46,25.46,0,0,1-3.64,10.39,34.76,34.76,0,0,1-11.85,13.12q-8.26,5.9-20.69,6.19-12.27-.3-20.47-6.19a35.56,35.56,0,0,1-12.13-13.12c-.77-1.62-1.45-3.17-2.07-4.65a30.89,30.89,0,0,1-1.43-5.74Q494.48,100.18,494.48,81.76Zm15.76,0q0,15.87,1.14,21.49a18.2,18.2,0,0,0,4.08,9.08,18.47,18.47,0,0,0,6.58,5.39,18,18,0,0,0,9.58,2.44,18.92,18.92,0,0,0,9.79-2.44,17.57,17.57,0,0,0,6.3-5.39,19.21,19.21,0,0,0,4.21-9.08Q553,97.64,553,81.76t-1.08-21.64a19.15,19.15,0,0,0-4.21-8.94,19.1,19.1,0,0,0-6.3-5.54,22.36,22.36,0,0,0-9.79-2.29A21.23,21.23,0,0,0,522,45.64a20.07,20.07,0,0,0-6.58,5.54,18.11,18.11,0,0,0-4.08,8.94Q510.24,65.88,510.24,81.76Z"/><path class="cls-1" d="M531.65,139.2h-.07c-8.72-.21-16.14-2.47-22.06-6.72a38.42,38.42,0,0,1-13-14.14c-.82-1.74-1.53-3.34-2.15-4.83a32.89,32.89,0,0,1-1.61-6.38c-.75-4.52-1.11-12.82-1.11-25.37,0-12.79.36-21.15,1.11-25.58A33.2,33.2,0,0,1,496.57,45a39.56,39.56,0,0,1,13-14.17c5.89-4.22,13.32-6.42,22.06-6.53,8.89.11,16.4,2.32,22.37,6.57A38.8,38.8,0,0,1,566.65,45a28.42,28.42,0,0,1,4,11.22c.64,4.44,1,12.77,1,25.5,0,12.52-.32,20.8-1,25.31a28.68,28.68,0,0,1-4,11.41,37.74,37.74,0,0,1-12.7,14c-5.92,4.22-13.41,6.48-22.23,6.69Zm0-109.22c-7.49.09-13.83,1.94-18.8,5.49a34.06,34.06,0,0,0-11.25,12.2,1,1,0,0,1-.1.17,27.74,27.74,0,0,0-3.13,9.31c-.68,4-1,12.32-1,24.61,0,12.07.35,20.3,1,24.45a28.21,28.21,0,0,0,1.29,5.21c.56,1.32,1.23,2.85,2,4.43a32.84,32.84,0,0,0,11.16,12c5,3.61,11.35,5.51,18.88,5.7,7.64-.19,14-2.09,19.05-5.66a32,32,0,0,0,10.94-12.06l.2-.34a22.68,22.68,0,0,0,3.19-9.23c.59-4.15.89-12.4.89-24.48,0-12.28-.3-20.58-.9-24.65A22.45,22.45,0,0,0,561.84,48a2.27,2.27,0,0,1-.19-.34,33.22,33.22,0,0,0-10.94-12.2C545.69,31.93,539.27,30.07,531.62,30Zm0,93a21,21,0,0,1-11-2.79,21.42,21.42,0,0,1-7.4-6.08,21,21,0,0,1-4.67-10.37c-.79-3.9-1.18-11.11-1.18-22s.39-18.14,1.19-22.19a21,21,0,0,1,4.66-10.18,23.11,23.11,0,0,1,7.42-6.24,24.18,24.18,0,0,1,10.86-2.63h.15a25.39,25.39,0,0,1,11,2.6,22.14,22.14,0,0,1,7.22,6.3,22.08,22.08,0,0,1,4.77,10.12c.76,4.11,1.13,11.36,1.13,22.22s-.37,18.07-1.12,22a22.19,22.19,0,0,1-4.78,10.31,20.57,20.57,0,0,1-7.14,6.11A21.92,21.92,0,0,1,531.62,123Zm0-76.8a18.52,18.52,0,0,0-8.25,2,17.43,17.43,0,0,0-5.65,4.74l-.14.18a15.32,15.32,0,0,0-3.41,7.57c-.73,3.68-1.1,10.77-1.1,21.13s.37,17.39,1.09,20.92a15.54,15.54,0,0,0,3.42,7.77l.14.18a15.9,15.9,0,0,0,5.6,4.57l.19.1a15.3,15.3,0,0,0,8.11,2,16.29,16.29,0,0,0,8.36-2l.11-.06a15,15,0,0,0,5.31-4.53l.18-.24a16.45,16.45,0,0,0,3.57-7.77c.67-3.51,1-10.56,1-20.92s-.34-17.47-1-21.12a16.37,16.37,0,0,0-3.56-7.58l-.18-.24A16.3,16.3,0,0,0,540,48.11,19.49,19.49,0,0,0,531.62,46.19Z"/><rect class="cls-2" y="45.02" width="65.5" height="23.24" rx="10.26"/><path class="cls-1" d="M576.41,152.13h0a11.14,11.14,0,0,0,15.77,0l65.89-65.89a11.16,11.16,0,0,0,0-15.77L592.18,4.58a11.16,11.16,0,0,0-15.77,0h0a11.17,11.17,0,0,0,0,15.78l50.12,50.11a11.16,11.16,0,0,1,0,15.77l-50.12,50.12A11.16,11.16,0,0,0,576.41,152.13Z"/><path class="cls-1" d="M676.2,85.16,624.41,137a10,10,0,0,0,0,14.1l1.68,1.67a10,10,0,0,0,14.1,0l67.55-67.56a10,10,0,0,0,0-14.1L640.19,3.5a10,10,0,0,0-14.1,0l-1.68,1.67a10,10,0,0,0,0,14.1L676.2,71.06A10,10,0,0,1,676.2,85.16Z"/><rect class="cls-2" x="584.59" y="169.79" width="32.85" height="14.73" rx="6.5"/><rect class="cls-1" y="144.87" width="564.2" height="14.73" rx="6.5"/><rect class="cls-2" y="169.79" width="564.2" height="14.73" rx="6.5"/></g></g></svg>